<svg width="32" height="32" viewBox="0 0 32 32" fill="none" xmlns="http://www.w3.org/2000/svg">
  <!-- Background Circle with Gradient -->
  <defs>
    <linearGradient id="bgGradient" x1="0%" y1="0%" x2="100%" y2="100%">
      <stop offset="0%" style="stop-color:#667eea;stop-opacity:1" />
      <stop offset="100%" style="stop-color:#764ba2;stop-opacity:1" />
    </linearGradient>
    <linearGradient id="calendarGradient" x1="0%" y1="0%" x2="100%" y2="100%">
      <stop offset="0%" style="stop-color:#ffffff;stop-opacity:1" />
      <stop offset="100%" style="stop-color:#f8f9fa;stop-opacity:1" />
    </linearGradient>
    <linearGradient id="certificateGradient" x1="0%" y1="0%" x2="100%" y2="100%">
      <stop offset="0%" style="stop-color:#ffd700;stop-opacity:1" />
      <stop offset="100%" style="stop-color:#ffed4e;stop-opacity:1" />
    </linearGradient>
  </defs>
  
  <!-- Background Circle -->
  <circle cx="16" cy="16" r="15" fill="url(#bgGradient)" stroke="#ffffff" stroke-width="1"/>
  
  <!-- Calendar Base -->
  <rect x="7" y="9" width="12" height="10" rx="1" fill="url(#calendarGradient)" stroke="#667eea" stroke-width="0.5"/>
  
  <!-- Calendar Header -->
  <rect x="7" y="9" width="12" height="3" rx="1" fill="#667eea"/>
  
  <!-- Calendar Rings -->
  <circle cx="9.5" cy="8" r="0.75" fill="#667eea"/>
  <circle cx="16.5" cy="8" r="0.75" fill="#667eea"/>
  
  <!-- Calendar Grid -->
  <line x1="9" y1="13" x2="17" y2="13" stroke="#667eea" stroke-width="0.25"/>
  <line x1="9" y1="15" x2="17" y2="15" stroke="#667eea" stroke-width="0.25"/>
  <line x1="9" y1="17" x2="17" y2="17" stroke="#667eea" stroke-width="0.25"/>
  
  <!-- Calendar Dots -->
  <circle cx="10" cy="14" r="0.5" fill="#667eea"/>
  <circle cx="12" cy="14" r="0.5" fill="#667eea"/>
  <circle cx="14" cy="14" r="0.5" fill="#667eea"/>
  <circle cx="16" cy="14" r="0.5" fill="#667eea"/>
  
  <circle cx="10" cy="16" r="0.5" fill="#667eea"/>
  <circle cx="12" cy="16" r="0.5" fill="#764ba2"/>
  <circle cx="14" cy="16" r="0.5" fill="#667eea"/>
  <circle cx="16" cy="16" r="0.5" fill="#667eea"/>
  
  <circle cx="10" cy="18" r="0.5" fill="#667eea"/>
  <circle cx="12" cy="18" r="0.5" fill="#667eea"/>
  <circle cx="14" cy="18" r="0.5" fill="#667eea"/>
  
  <!-- Certificate/Award Icon -->
  <g transform="translate(20, 20)">
    <!-- Certificate Background -->
    <rect x="0" y="0" width="8" height="6" rx="0.5" fill="url(#certificateGradient)" stroke="#d4af37" stroke-width="0.25"/>
    
    <!-- Certificate Lines -->
    <line x1="1" y1="1.5" x2="7" y2="1.5" stroke="#d4af37" stroke-width="0.25"/>
    <line x1="1" y1="2.5" x2="7" y2="2.5" stroke="#d4af37" stroke-width="0.25"/>
    <line x1="1" y1="3.5" x2="5" y2="3.5" stroke="#d4af37" stroke-width="0.25"/>
    
    <!-- Star -->
    <polygon points="4,0.5 4.25,1.25 5,1.25 4.375,1.75 4.625,2.5 4,2 3.375,2.5 3.625,1.75 3,1.25 3.75,1.25" fill="#d4af37"/>
    
    <!-- Ribbon -->
    <rect x="3" y="6" width="2" height="3" fill="#d4af37"/>
    <polygon points="3,9 4,8 5,9" fill="#b8860b"/>
  </g>
  
  <!-- Connecting Line -->
  <path d="M 19 16 Q 20 18 22 22" stroke="#ffffff" stroke-width="0.75" fill="none" stroke-dasharray="1,1" opacity="0.7"/>
</svg>
